<svg xmlns="http://www.w3.org/2000/svg" viewBox="77.27 86.5 136.88 26.52"><path d="M103.755 99.167c.009.194.015.387.016.579v.011c0 6.133-4.162 11.294-9.815 12.808a13.366 13.366 0 0 1-3.7.448c-6.706-.132-12.19-5.247-12.907-11.798-.03-.281-.051-.566-.063-.853a14.035 14.035 0 0 1-.016-.577v-.028c0-7.321 5.932-13.257 13.25-13.257 6.242 0 11.474 4.317 12.88 10.127.196.819.318 1.668.355 2.54Zm-6.241-6.063c-.775-.215-1.348-.399-1.518-.755-.08-.169-.031-.338.08-.418.119-.087.28-.058.468.034.278.134.617.334.878.366.76.092.621-1.071-.744-1.746-.803-.399-1.589-.563-2.653-.523a5.663 5.663 0 0 1-1.096-.05c-.498-.077-1.107-.288-1.518-.374-.315-.066-.494-.058-.569.047-.069.099-.047.246.145.488.384.485.989 1.024.68 2.285-.767 3.127.283 4.558 1.352 4.793.6.133 1.152-.008 1.489-.358.32-.335.458-.902.15-1.382-.472-.736-.639-1.376-.217-1.642.385-.243.933-.019 1.35.913.666 1.494 1.533 1.89 2.4.828.71-.87.682-2.131-.677-2.506Zm-2.412 8.161c-3.594-2.154-5.376-3.006-6.831-4.045-2.41-1.719-2.791-3-2.864-3.892-.132-1.595 1.075-3.031 2.303-3.708.095-.058.257-.19.186-.372-.071-.183-.291-.148-.373-.13-2.747.583-5.417 3.004-5.002 6.234.165 1.28.979 3.442 5.192 5.924 1.437.846 2.678 1.487 4.625 2.603 2.638 1.509 3.852 3.452 2.218 5.573-.124.148-.23.301-.186.435.051.155.254.182.445.096 1.253-.577 2.289-1.444 2.782-2.248.868-1.416 1.301-4.192-2.495-6.47Zm-4.204 8.603a10.42 10.42 0 0 1-1.204-.418c-.509-.222-.968-.465-1.17-.666-.133-.133-.154-.284-.048-.439.608-.873.779-1.219.949-1.63.36-.87.004-.954-.556-.793-.608.174-1.09.352-1.463.492-.523.195-.846.315-1.036.222-.199-.096-.235-.441-.307-1.012-.05-.407-.135-.87-.244-1.323-.225-.907-.613-.733-.934-.362-.399.485-.619 1.085-.784 1.4-.089.168-.19.224-.314.197-.277-.059-.642-.487-1.04-.996-.582-.744-.842-1.316-1.145-1.351-.644-.075-.357 1.448.247 2.704a8.033 8.033 0 0 0 3.035 3.407c1.746 1.106 4.328 1.508 5.914 1.285.501-.071.6-.573.1-.717ZM121.701 102.623v-9.275c0-.303-.035-.553-.089-.749-.071-.196-.196-.375-.357-.571-.107-.125-.124-.249-.071-.357a.294.294 0 0 1 .268-.142h3.05v11.094h-2.801Zm-8.633-9.007c0-.303-.018-.535-.053-.714-.054-.196-.161-.374-.321-.571-.107-.124-.143-.249-.09-.356a.278.278 0 0 1 .268-.161h3.086v2.373c0 .588.125 1.105.392 1.569.268.482.607.892.999 1.249.428.357.892.66 1.409.927a11.46 11.46 0 0 0 1.552.66l-.767 1.445c-.125.214-.392.268-.82.178-.446-.089-1.053-.374-1.82-.856-.446-.267-.856-.588-1.266-.927a6.174 6.174 0 0 1-.999-1.07 9.244 9.244 0 0 1-2.426 2.354c-.268.178-.553.339-.838.499-.304.161-.571.304-.839.393-.267.107-.481.16-.678.178-.178.018-.303-.018-.356-.125l-.821-1.551c.589-.232 1.16-.5 1.695-.821.517-.303.981-.66 1.391-1.052.41-.393.714-.821.963-1.302.232-.482.339-.999.339-1.57v-.749Zm1.498 14.483c-.535 0-.998-.035-1.373-.089-.375-.053-.696-.178-.91-.339a1.363 1.363 0 0 1-.517-.66c-.107-.267-.161-.642-.161-1.088v-2.764c0-.179-.035-.339-.089-.482-.053-.143-.16-.285-.285-.446-.107-.125-.143-.25-.089-.357.053-.107.142-.16.267-.16h3.033v3.639c0 .321.053.517.196.606.125.089.321.125.624.125h9.543v2.015h-10.239ZM130.709 92.849c0-.303-.018-.553-.053-.749a1.694 1.694 0 0 0-.322-.571c-.124-.125-.142-.25-.089-.357a.295.295 0 0 1 .268-.143h3.05v1.998h4.049v1.962h-1.873c.268.303.5.66.66 1.035.161.392.232.82.232 1.266 0 .553-.107 1.07-.303 1.552s-.5.91-.892 1.266a4.11 4.11 0 0 1-1.445.839 6.244 6.244 0 0 1-1.98.303 6.05 6.05 0 0 1-1.962-.303 4.11 4.11 0 0 1-1.445-.839 3.754 3.754 0 0 1-.909-1.266 4.066 4.066 0 0 1-.304-1.552c0-.464.072-.892.232-1.266.143-.375.357-.732.625-1.035h-1.873v-1.962h4.334v-.178Zm8.348 10.024v-9.525a2.89 2.89 0 0 0-.089-.749c-.054-.178-.179-.375-.339-.571-.125-.125-.143-.249-.089-.357a.292.292 0 0 1 .267-.142h3.05v4.209h2.034v2.016h-2.034v5.119h-2.8Zm3.014 3.211v2.015H132.1c-.535 0-.999-.035-1.373-.107a2.124 2.124 0 0 1-.963-.356c-.25-.161-.428-.393-.553-.696-.107-.285-.161-.66-.161-1.106v-1.962c0-.178-.035-.339-.089-.482-.053-.142-.161-.285-.285-.445-.107-.125-.143-.25-.09-.357a.278.278 0 0 1 .268-.161h3.032v2.926c0 .321.072.517.197.606.124.089.321.125.624.125h9.364Zm-10.06-6.796c.624 0 1.106-.196 1.427-.624.357-.411.517-.892.517-1.463 0-.606-.16-1.124-.517-1.534-.321-.41-.803-.606-1.427-.606s-1.106.196-1.445.606c-.339.41-.499.928-.499 1.534 0 .571.16 1.052.499 1.463.339.428.821.624 1.445.624ZM146.12 91.886h13.2v1.944h-10.025v1.391h9.971v1.944h-9.971v.732c0 .267.054.446.161.535.107.089.303.142.571.142h9.525v1.963h-10.185c-1.035 0-1.784-.197-2.266-.571-.463-.375-.695-1.035-.695-1.962v-4.281a2.89 2.89 0 0 0-.089-.749c-.072-.197-.197-.375-.357-.571-.107-.125-.143-.25-.089-.357.035-.107.125-.16.249-.16Zm15.269 9.97v2.016h-7.046v4.442h-2.889v-4.442h-7.064v-2.016h16.999ZM162.834 94.222v-2.015h9.882v2.015h-3.443v2.961c0 .981.178 1.837.517 2.604a6.9 6.9 0 0 0 1.463 2.105c.339.321.713.624 1.124.928.392.303.802.57 1.213.802l-1.035 1.588c-.054.089-.178.125-.339.089-.16-.018-.374-.107-.606-.232-.232-.143-.5-.339-.803-.553a29.667 29.667 0 0 1-.874-.785 5.982 5.982 0 0 1-.553-.588 10.08 10.08 0 0 1-.553-.678 4.828 4.828 0 0 1-.499-.731 3.772 3.772 0 0 1-.357-.714 7.13 7.13 0 0 1-.41.821c-.161.285-.357.57-.553.856-.214.267-.428.535-.66.803a9.05 9.05 0 0 1-.714.713c-.66.606-1.213 1.052-1.676 1.356-.464.303-.767.356-.892.196l-1.249-1.534a12.13 12.13 0 0 0 1.266-.928c.393-.303.767-.642 1.142-1.016a7.517 7.517 0 0 0 1.641-2.319c.339-.803.5-1.73.5-2.765v-2.979h-3.532Zm11.612 14.092V93.366a2.89 2.89 0 0 0-.089-.749c-.054-.179-.179-.375-.339-.571-.107-.125-.143-.25-.09-.357a.277.277 0 0 1 .268-.16h3.05v5.636h2.319v2.052h-2.319v9.097h-2.8ZM195.208 105.103c0 .553-.143 1.052-.446 1.498-.303.446-.749.803-1.32 1.106-.571.303-1.266.535-2.087.696-.82.16-1.748.232-2.782.232-2.105 0-3.746-.304-4.905-.928-1.16-.606-1.748-1.48-1.748-2.604 0-.553.142-1.053.445-1.498.304-.446.732-.821 1.303-1.124.57-.303 1.266-.517 2.086-.678.821-.161 1.766-.232 2.819-.232 1.034 0 1.962.071 2.782.232.821.161 1.516.375 2.087.678.571.303 1.017.678 1.32 1.124.303.445.446.945.446 1.498Zm-13.146-11.38v-2.016h13.003v2.016h-4.923c.143.267.393.535.75.802.374.268.82.536 1.337.767.518.25 1.088.482 1.731.678.642.196 1.32.357 2.033.482l-.642 1.605c-.071.161-.375.214-.892.125-.517-.071-1.302-.285-2.337-.642a11.654 11.654 0 0 1-2.051-.91c-.589-.321-1.124-.66-1.57-1.034a7.98 7.98 0 0 1-1.302.963c-.481.303-1.07.588-1.748.856a13.06 13.06 0 0 1-1.32.464c-.446.125-.838.232-1.195.303-.357.071-.66.107-.892.089-.232-.018-.374-.071-.428-.196l-.66-1.534a18.492 18.492 0 0 0 2.069-.464c.66-.196 1.249-.41 1.784-.66a7.355 7.355 0 0 0 1.356-.802c.374-.286.624-.589.767-.892h-4.87Zm15.001 5.244v1.926h-16.999v-1.926h16.999Zm-4.655 6.136c0-.571-.304-.999-.91-1.249-.624-.249-1.587-.374-2.925-.374-1.338 0-2.301.125-2.926.374-.624.25-.927.678-.927 1.249 0 .606.303 1.034.927 1.284.625.25 1.588.375 2.926.375s2.301-.125 2.925-.375c.606-.25.91-.678.91-1.284ZM206.463 94.365c.018-.25-.125-.375-.428-.375h-6.707v-1.926h7.706c.482 0 .856.036 1.159.107.304.053.518.16.678.321.161.161.25.375.286.642.035.286.035.624 0 1.017l-.268 3.603h1.498v1.409c-.267.196-.606.321-1.052.375-.446.053-.963.089-1.57.089h-2.747v2.782h-2.711v-2.782h-4.388v-1.873h8.33l.214-3.389Zm4.763 9.4v-1.373h-4.138v-1.838h4.138v-7.17c0-.321-.036-.571-.107-.767-.054-.196-.179-.375-.339-.553-.107-.161-.125-.285-.071-.393a.292.292 0 0 1 .267-.142h2.997v12.236h-2.747Zm-10.613.999c0-.178-.036-.339-.089-.482-.054-.142-.161-.285-.286-.446-.107-.124-.143-.249-.089-.356a.277.277 0 0 1 .267-.161h3.033v2.283a.46.46 0 0 0 .16.375c.09.089.232.143.393.143h10.149v1.979h-11.398c-.695 0-1.213-.196-1.587-.57-.375-.375-.553-.856-.553-1.463v-1.302Z" style="fill-rule:nonzero;fill:#0046ff"/></svg>